PathFileType	4	(X/Y/Z)	C:/Users/opensim2020/Desktop/walking_exp_matlab/subject02_walking08_straight_02.trc																																																																																																																									
DataRate	CameraRate	NumFrames	NumMarkers	Units	OrigDataRate	OrigDataStartFrame	OrigNumFrames																																																																																																																					
100	100	7	41	mm	100	1663	259																																																																																																																					
Frame#	Time	LFHD			RFHD			LBHD			RBHD			C7			T10			CLAV			STRN			RBAK			LSHO			LUPA			LELB			LFRM			LWRA			LWRB			LFIN			RSHO			RUPA			RELB			RFRM			RWRA			RWRB			RFIN			LASI			RASI			LPSI			RPSI			LTHI			LKNE			LTIB			LANK			LHEE			LTOE			RTHI			RKNE			RTIB			RANK			RHEE			RTOE			*39			*40		
		X1	Y1	Z1	X2	Y2	Z2	X3	Y3	Z3	X4	Y4	Z4	X5	Y5	Z5	X6	Y6	Z6	X7	Y7	Z7	X8	Y8	Z8	X9	Y9	Z9	X10	Y10	Z10	X11	Y11	Z11	X12	Y12	Z12	X13	Y13	Z13	X14	Y14	Z14	X15	Y15	Z15	X16	Y16	Z16	X17	Y17	Z17	X18	Y18	Z18	X19	Y19	Z19	X20	Y20	Z20	X21	Y21	Z21	X22	Y22	Z22	X23	Y23	Z23	X24	Y24	Z24	X25	Y25	Z25	X26	Y26	Z26	X27	Y27	Z27	X28	Y28	Z28	X29	Y29	Z29	X30	Y30	Z30	X31	Y31	Z31	X32	Y32	Z32	X33	Y33	Z33	X34	Y34	Z34	X35	Y35	Z35	X36	Y36	Z36	X37	Y37	Z37	X38	Y38	Z38	X39	Y39	Z39	X40	Y40	Z40	X41	Y41	Z41
																																																																																																																												
195	1.94	628.75885	1725.62048	-1546.60742	602.5069	1694.99219	-1408.10596	494.77145	1666.99023	-1583.32239	457.95474	1636.91895	-1446.69275	415.76428	1523.83484	-1523.57324	356.02283	1244.77234	-1513.11401	551.55157	1447.42078	-1526.43115	598.04254	1275.47168	-1514.21228	349.29657	1348.51709	-1459.47498	497.82794	1491.31616	-1699.33179	512.91248	1292.41003	-1791.0094	534.49097	1155.0824	-1812.48877	572.04028	1028.67688	-1826.91064	644.58862	915.00671	-1789.74182	605.67786	910.91827	-1830.71924	640.01636	853.95026	-1834.42908	483.34454	1485.59607	-1332.7843	440.36069	1298.0553	-1249.04297	447.44397	1152.10278	-1226.43372	480.47025	1037.04004	-1201.40088	540.90875	914.96777	-1211.17078	490.85529	907.64978	-1185.72986	533.57056	849.06531	-1176.79053	587.46423	978.24963	-1641.04395	591.2843	975.20734	-1384.28406	377.81076	1025.00098	-1557.52734	374.35715	1025.26282	-1443.31592	492.98636	667.81805	-1671.61548	436.02097	471.43515	-1631.0116	353.11115	293.91397	-1621.72131	326.42966	74.19685	-1572.62939	288.90234	50.02901	-1520.01196	479.7739	30.48297	-1588.13818	577.03601	679.789	-1291.87805	646.60748	481.87192	-1318.38391	635.29413	295.04172	-1308.71997	656.82837	102.06061	-1334.76245	646.89008	40.7014	-1394.50745	808.75006	73.09618	-1294.22803	519.84473	1794.82764	-1467.69885	NaN	NaN	NaN
196	1.95	636.78876	1724.46838	-1545.2251	610.16772	1693.71533	-1406.85901	502.82141	1666.12964	-1582.37219	465.63879	1635.94617	-1445.80334	423.5368	1522.88171	-1522.84998	363.61017	1243.87366	-1512.39563	558.92279	1446.23108	-1525.69507	605.57434	1274.34387	-1513.85254	357.237	1347.28271	-1458.75281	505.60886	1490.5332	-1698.61304	520.60156	1291.78894	-1790.51587	542.25568	1154.36255	-1811.93164	580.18695	1028.24854	-1826.27332	653.39441	914.76398	-1788.5332	614.45685	910.36554	-1829.5293	648.85193	853.73499	-1833.14526	491.18201	1484.16956	-1331.9707	447.98975	1296.57617	-1248.302	453.67038	1150.70764	-1226.32227	486.24554	1035.52966	-1200.91125	545.44971	912.90308	-1210.56665	495.52658	906.09094	-1185.38635	537.37061	847.0025	-1176.33838	594.30743	977.24908	-1641.50464	599.42169	974.19452	-1384.55737	385.18567	1024.1239	-1556.6571	382.21033	1024.25	-1442.44373	497.73822	667.25513	-1671.54382	439.57361	471.23883	-1630.91003	355.00418	294.46603	-1621.44507	326.65527	74.81006	-1572.54529	288.91492	51.02365	-1519.9491	479.79169	30.4744	-1588.28088	584.41528	678.2442	-1292.4021	654.69971	480.58209	-1320.23462	650.91406	293.7576	-1308.96826	679.31195	101.41872	-1334.32202	670.29834	39.56245	-1393.74426	832.90314	77.66611	-1296.30176	527.77441	1793.80042	-1466.53577	-2845.97046	1034.09485	3356.90186
197	1.96	644.80432	1723.34497	-1543.81311	617.76685	1692.39551	-1405.49573	510.81003	1665.25916	-1581.3551	473.30649	1634.92188	-1444.89014	431.29727	1521.86511	-1521.9718	371.37064	1242.90979	-1511.53394	566.8963	1445.27905	-1524.94324	613.31659	1273.25513	-1513.5072	364.94778	1346.32935	-1458.13293	513.28802	1489.91711	-1697.86902	528.1488	1290.98779	-1789.85986	549.94562	1153.61096	-1811.26001	588.35681	1027.47534	-1825.36597	662.10626	914.49469	-1787.22803	623.17072	909.78931	-1828.06689	657.74561	853.29639	-1831.5874	498.63956	1482.82043	-1331.26013	455.16815	1295.28931	-1247.75488	460.25131	1149.29407	-1225.9585	492.00226	1033.6687	-1200.55151	550.18207	910.92035	-1209.94629	499.84961	904.47583	-1184.64783	541.24182	844.8551	-1175.76135	601.19305	976.20197	-1641.82849	607.71643	973.10388	-1384.81836	392.65247	1023.1947	-1555.63916	390.23883	1023.22498	-1441.4447	502.62381	666.68585	-1671.48279	443.14218	471.05246	-1630.75537	356.97171	295.10983	-1621.2124	327.05344	75.38718	-1572.42249	289.2254	52.05591	-1519.88892	479.81833	30.43057	-1588.38049	591.79022	676.62537	-1292.91821	663.57715	479.8757	-1322.13806	665.63739	292.61978	-1309.74829	701.11639	100.97926	-1334.00073	693.22327	39.06208	-1393.43433	856.22321	82.53243	-1298.47205	535.70294	1792.64465	-1465.18127	-2846.02417	1033.94202	3356.86035
198	1.97	652.79169	1722.23401	-1542.31714	625.34698	1691.12524	-1404.11292	518.78668	1664.36646	-1580.24963	480.91458	1633.89563	-1444.0354	439.08261	1520.8114	-1520.99219	379.17902	1241.83398	-1510.46912	574.50201	1444.13831	-1524.08203	621.10712	1272.19702	-1513.0437	372.5502	1345.24622	-1457.46582	521.05511	1489.078	-1696.93665	535.68134	1290.19287	-1788.97449	557.51007	1152.77063	-1810.4447	596.37549	1026.66724	-1824.02319	670.67365	914.24799	-1785.75171	631.63556	909.06842	-1826.4707	666.54626	852.81012	-1829.83545	506.49579	1481.26721	-1330.28882	462.68167	1293.88989	-1247.04993	467.51382	1147.91125	-1225.29688	497.61273	1032.21399	-1199.85913	554.82239	908.67902	-1209.22253	504.58649	902.77197	-1183.93958	545.38794	842.77734	-1175.14172	608.28461	975.14209	-1642.08093	616.27814	971.96783	-1384.94446	400.17334	1022.2287	-1554.52039	398.37955	1022.16974	-1440.32935	507.45038	666.16669	-1671.44104	446.75473	470.91867	-1630.58081	359.00085	295.75757	-1620.95593	327.23663	76.13619	-1572.44934	289.5296	52.81915	-1519.63025	479.87466	30.38836	-1588.53357	599.20721	675.01288	-1293.45044	671.47778	478.45667	-1324.11633	680.22937	291.87238	-1310.05298	721.79498	101.22814	-1333.41479	715.34265	38.69409	-1392.44507	878.51074	87.22768	-1300.65442	543.57849	1791.6001	-1463.90222	-2845.21997	1034.03516	3360.41943
199	1.98	660.79718	1721.3186	-1540.86047	632.96136	1689.86975	-1402.69519	526.9903	1663.28247	-1578.6936	488.6091	1632.74353	-1442.96277	446.81763	1519.71729	-1519.94275	387.03595	1240.78906	-1509.32642	582.64777	1443.20093	-1523.18018	628.96234	1271.05566	-1512.552	379.96561	1344.17944	-1457.08813	528.83026	1488.30676	-1695.95703	543.18658	1289.37036	-1788.05713	565.05939	1151.87573	-1809.51294	604.33429	1025.80774	-1822.6947	679.14801	913.90997	-1784.10547	639.87604	908.2135	-1824.56934	675.11469	852.22168	-1827.96875	514.35785	1479.88391	-1329.3335	469.49377	1292.3866	-1246.78333	474.09045	1146.40869	-1224.95642	503.63834	1030.54932	-1199.37415	559.68762	906.55286	-1208.50012	509.41794	901.13257	-1183.14746	549.44751	840.55402	-1174.34399	615.46552	974.0589	-1642.22424	624.66541	970.56799	-1385.06189	407.8562	1021.24841	-1553.27454	406.62134	1021.09003	-1439.09839	512.24194	665.66235	-1671.17444	450.41101	470.7818	-1630.42822	361.04596	296.45313	-1620.66833	327.5795	76.83142	-1572.39832	289.85446	53.65244	-1519.53516	479.92651	30.29571	-1588.66296	606.71448	673.30475	-1293.86096	679.54993	476.90594	-1326.1095	694.09717	291.33459	-1310.67798	741.54761	101.59356	-1333.13086	736.38171	38.22873	-1391.01489	899.60992	91.8504	-1302.68066	551.38	1790.5011	-1462.47351	-2845.24634	1034.01697	3360.33276
200	1.99	668.65314	1720.32446	-1539.23669	640.63251	1688.62158	-1401.10669	534.69141	1662.43933	-1577.68481	496.23541	1631.55176	-1441.76172	454.66205	1518.56067	-1518.75122	395.04416	1239.65002	-1507.98279	590.68304	1442.1626	-1522.18835	636.88751	1269.95569	-1511.97864	388.3277	1342.7749	-1455.60034	536.53381	1487.52966	-1694.90137	550.54132	1288.66248	-1787.40442	572.56238	1150.93408	-1808.48267	612.20935	1024.85559	-1821.43201	687.31616	913.23022	-1782.22729	648.03918	907.41931	-1822.69043	683.49036	851.53613	-1825.88159	522.48541	1478.34766	-1328.08093	476.71753	1290.75146	-1246.22412	481.11945	1144.98352	-1224.41577	509.7482	1029.10913	-1198.48767	564.6203	904.35449	-1207.54395	514.34424	899.47198	-1182.25525	553.91479	838.52179	-1173.48596	622.77747	972.94989	-1642.22668	633.3465	969.21069	-1385.03833	415.64023	1020.2478	-1551.95886	415.01358	1020.00812	-1437.75232	517.35278	665.12091	-1671.04565	454.16153	470.69681	-1630.24512	362.96948	297.30161	-1620.44812	327.82886	77.62782	-1572.40808	289.83737	54.97646	-1519.61951	480.01923	30.25762	-1588.9386	614.48602	671.60236	-1294.24182	687.94159	475.7706	-1327.66162	707.20239	290.69342	-1311.67542	760.39453	102.00462	-1333.05957	756.42041	38.59369	-1390.58032	919.31085	96.22946	-1304.43945	559.08466	1789.33813	-1460.92017	-2845.86963	1034.04846	3356.97266
201	2	676.31464	1719.29724	-1537.52649	648.25671	1687.4646	-1399.55652	542.58484	1661.4834	-1576.29651	503.96597	1630.37268	-1440.57239	462.58792	1517.33777	-1517.45349	403.12323	1238.51514	-1506.54065	598.69586	1441.08716	-1521.0647	644.90887	1268.79956	-1511.30176	396.11105	1341.56641	-1454.67273	544.31348	1486.7063	-1693.73877	557.99542	1287.7196	-1786.17676	580.00232	1149.95081	-1807.25391	619.89807	1023.8493	-1819.60645	695.48303	912.77948	-1780.3031	656.05249	906.56537	-1820.67932	691.69006	850.73523	-1823.63892	530.49109	1476.78882	-1326.81934	484.70627	1289.08362	-1245.29895	487.65042	1143.34534	-1224.38452	515.67645	1027.29541	-1198.09924	569.79993	902.14331	-1206.48425	519.56921	897.77081	-1181.45288	558.28595	836.44073	-1172.51135	630.13593	971.82233	-1642.05676	642.16248	967.86438	-1384.94031	423.54028	1019.17548	-1550.5603	423.52524	1018.90363	-1436.32446	522.43195	664.68445	-1670.85242	457.9407	470.62943	-1630.01733	365.11282	298.08258	-1620.00891	328.28357	78.28835	-1572.23535	289.96478	56.29641	-1519.62207	479.95309	30.20099	-1588.94763	622.42072	669.78253	-1294.66821	696.25378	474.1976	-1329.01807	719.91101	290.23816	-1312.026	777.80756	102.54629	-1332.99536	774.51093	38.73741	-1390.1615	937.30817	99.80142	-1305.81665	566.70953	1788.09509	-1459.22131	NaN	NaN	NaN
